<svg width="508" height="388" viewBox="0 0 508 388" fill="none" xmlns="http://www.w3.org/2000/svg">
<g clip-path="url(#clip0)">
<path opacity="0.18" d="M306.629 7.78988C326.114 12.0507 345.56 18.069 362.234 29.0939C407.564 59.1591 423.213 118.73 459.267 159.701C475.034 177.569 495.176 192.708 503.52 215.104C510.155 232.893 508.25 252.679 505.215 271.44C502.413 288.756 498.738 305.915 494.204 322.849C491.418 333.261 488.226 343.754 482.26 352.675C464.378 379.424 427.917 384.498 396.028 384.178C363.426 383.849 330.921 380.511 298.916 374.205C282.887 371.036 266.922 367.121 250.63 365.95C215.246 363.433 180.427 373.939 145.516 380.117C110.606 386.295 72.318 387.627 42.0979 368.839C30.5238 361.521 20.7515 351.621 13.5265 339.894C6.3014 328.167 1.81429 314.923 0.40732 301.172C-1.47158 281.133 3.36364 261.108 8.56675 241.668C15.2677 216.582 22.6344 191.688 30.6669 166.984C36.8554 147.93 43.517 128.863 53.6867 111.647C99.1745 34.6995 223.603 -10.3984 306.629 7.78988Z" fill="#354F52"/>
<path d="M151.232 290.773C163.443 292.682 175.623 294.746 187.772 296.965C195.787 298.429 203.999 300.041 210.91 304.395C213.301 305.899 215.614 307.976 215.955 310.772C216.337 313.875 214.011 316.778 211.212 318.082C208.32 319.181 205.228 319.635 202.146 319.414L122.286 319.907C105.363 320.013 86.9156 319.6 73.8027 308.749C71.5669 307.111 69.8502 304.848 68.8624 302.238C68.3959 300.927 68.3465 299.502 68.7213 298.162C69.096 296.822 69.8761 295.635 70.9515 294.768C72.457 293.932 74.1489 293.501 75.8656 293.516L111.985 290.68" fill="url(#paint0_linear)"/>
<path d="M138.815 284.329C145.556 282.784 144.229 292.451 146.003 296.046C147.121 297.873 148.523 299.505 150.155 300.879C151.808 302.258 152.891 304.216 153.19 306.365C153.223 306.766 153.141 307.169 152.953 307.524C152.626 307.946 152.16 308.235 151.639 308.336C147.801 309.48 143.675 309.069 140.129 307.191C138.47 306.392 137.093 305.095 136.188 303.476C135.449 301.742 135.099 299.864 135.163 297.977C135.044 293.942 133.218 285.594 138.815 284.329Z" fill="#FDB9A9"/>
<path d="M144.767 304.235C144.767 304.235 163.911 305.06 155.804 311.145C147.697 317.23 135.596 309.667 134.414 308.269C133.231 306.871 134.204 304.501 134.204 304.501L144.767 304.235Z" fill="#354F52"/>
<path d="M135.255 306.911C136.963 309.015 145.95 311.838 149.931 311.558C153.912 311.278 157.486 309.388 157.092 306.778C156.698 304.168 149.668 298.097 148.354 298.123C147.041 298.15 145.976 301.226 143.322 301.878C142.134 302.074 140.916 301.961 139.782 301.549C138.649 301.137 137.638 300.439 136.845 299.521C136.601 299.187 136.251 298.947 135.854 298.843C135.457 298.739 135.037 298.776 134.663 298.949C134.121 300.226 133.891 301.617 133.994 303.004C134.097 304.39 134.529 305.731 135.255 306.911V306.911Z" fill="white"/>
<path d="M115.743 288.15C122.483 286.566 121.156 296.219 122.93 299.814C124.034 301.652 125.438 303.287 127.082 304.648C128.737 306.03 129.816 307.993 130.104 310.147C130.143 310.547 130.065 310.949 129.881 311.305C129.554 311.728 129.087 312.016 128.567 312.117C124.723 313.248 120.598 312.838 117.044 310.972C115.394 310.16 114.021 308.866 113.102 307.257C112.363 305.524 112.013 303.645 112.077 301.758C111.906 297.684 110.146 289.362 115.743 288.15Z" fill="#FDB9A9"/>
<path d="M121.695 307.95C121.695 307.95 140.839 308.775 132.732 314.873C124.625 320.972 112.524 313.396 111.394 311.997C110.264 310.599 111.171 308.229 111.171 308.229L121.695 307.95Z" fill="#354F52"/>
<path d="M112.182 310.599C113.89 312.716 122.878 315.539 126.859 315.246C130.84 314.953 134.414 313.089 134.02 310.48C133.625 307.87 126.596 301.798 125.282 301.811C123.968 301.825 122.904 304.927 120.25 305.566C119.058 305.757 117.838 305.637 116.705 305.217C115.572 304.798 114.562 304.093 113.772 303.17C113.527 302.837 113.176 302.6 112.779 302.498C112.382 302.397 111.963 302.436 111.591 302.61C111.041 303.89 110.808 305.287 110.911 306.679C111.014 308.071 111.45 309.417 112.182 310.599V310.599Z" fill="white"/>
<path d="M133.087 200.165L124.1 296.033L111.131 294.408C106.007 271.001 107.268 200.99 107.268 200.99L133.087 200.165Z" fill="#473F47"/>
<path d="M124.1 197.568L133.087 293.436L146.081 291.812C153.505 231.122 147.395 193.348 147.395 193.348L124.1 197.568Z" fill="#473F47"/>
<path d="M146.239 162.883C146.41 161.125 146.87 159.381 147.054 157.557C147.477 153.938 147.406 150.278 146.843 146.679C146.236 142.844 145.099 139.115 143.467 135.6C141.969 132.565 139.262 131.273 136.227 129.755C133.682 128.361 130.924 127.411 128.068 126.946C126.052 126.757 124.02 126.869 122.037 127.279C115.927 128.464 107.873 131.659 103.642 136.599C100.515 140.274 100.147 145.52 100.042 150.38C99.9103 157.038 100.042 163.775 100.449 170.472C100.449 171.444 100.567 172.416 100.646 173.375C101.198 180.725 101.802 188.341 103.865 195.438C104.509 197.662 105.179 199.899 107.229 201.084C111.998 203.906 119.317 202.348 124.481 201.629C131.339 200.644 138.369 199.606 144.452 196.237C145.712 195.68 146.733 194.683 147.33 193.427C147.868 191.91 147.224 190.285 146.765 188.741C144.702 181.897 146.292 174.693 146.292 167.703C146.292 166.438 146.134 165.133 146.134 163.868C146.2 163.544 146.235 163.214 146.239 162.883V162.883Z" fill="white"/>
<path opacity="0.1" d="M133.967 133.39C134.057 135.746 133.969 138.105 133.704 140.447C133.704 142.604 133.901 144.748 133.796 146.892C133.601 150.529 132.359 154.028 130.222 156.958L147.041 153.376C147.388 153.347 147.709 153.179 147.934 152.91C148.055 152.598 148.055 152.25 147.934 151.938L146.476 145.28C145.968 141.945 144.83 138.74 143.125 135.84C141.235 133.313 138.787 131.27 135.977 129.875C135.347 129.542 133.205 127.971 132.601 129.023C132.417 129.476 133.875 132.605 133.967 133.39Z" fill="#020202"/>
<path d="M142.534 150.047C143.374 149.515 144.333 149.205 145.322 149.145C146.311 149.084 147.299 149.275 148.197 149.701C149.079 150.154 149.824 150.842 150.349 151.691C150.875 152.54 151.162 153.519 151.179 154.521C151.097 155.885 150.642 157.199 149.865 158.316C149.456 159.061 148.891 159.706 148.21 160.207C147.126 160.857 145.86 161.124 144.61 160.965C143.489 160.912 142.394 160.607 141.404 160.073C139.932 159.235 138.014 156.838 138.513 154.96C139.343 152.955 140.742 151.244 142.534 150.047V150.047Z" fill="#FDB9A9"/>
<path opacity="0.1" d="M119.054 194.679C120.069 192.058 120.586 189.266 120.578 186.45C120.404 183.784 120.004 181.138 119.383 178.541L115.007 157.397C114.206 153.522 112.471 134.762 106.638 136.959C105.003 137.662 103.542 138.723 102.359 140.064C101.175 141.406 100.299 142.996 99.792 144.721C98.7955 148.177 98.3824 151.778 98.5701 155.373C98.6752 164.694 100.502 174.227 101.684 183.481C102.131 186.983 102.67 199.992 107.242 201.137C108.135 201.376 109.016 201.829 109.87 201.989C111.407 202.269 116.019 204.133 118.029 203.52C118.194 203.481 118.349 203.407 118.485 203.304C118.621 203.201 118.734 203.07 118.818 202.921C120 200.564 118.095 195.931 118.095 193.281C118.301 188.965 120.031 184.868 122.97 181.737C126.192 178.366 129.852 175.454 133.849 173.082L139.223 169.554C140.092 168.863 141.143 168.446 142.245 168.355C142.99 168.5 143.746 168.571 144.505 168.568C145.674 168.369 146.37 167.144 146.791 166.025C147.831 163.335 148.314 160.457 148.21 157.57C148.225 157.384 148.202 157.196 148.14 157.019C148.079 156.843 147.982 156.681 147.855 156.545C147.667 156.445 147.457 156.392 147.244 156.392C147.031 156.392 146.822 156.445 146.633 156.545L129.736 161.871C127.236 162.884 124.537 163.295 121.853 163.069C119.225 162.63 116.597 160.526 116.597 157.823" fill="#020202"/>
<path d="M101.986 138.477C96.4415 147.797 94.5101 158.769 92.6838 169.474C92.3689 170.781 92.3153 172.139 92.5261 173.468C92.8694 174.646 93.511 175.711 94.387 176.559C95.263 177.407 96.3428 178.008 97.519 178.302C99.8775 178.862 102.316 178.993 104.719 178.688C109.896 178.342 116.006 177.889 120.394 174.866C121.892 173.828 123.232 172.536 124.77 171.538C126.265 170.642 127.819 169.85 129.421 169.168C132.483 167.727 135.404 165.998 138.145 164.001C139.092 163.415 139.882 162.601 140.445 161.631C141.338 159.834 140.642 157.637 139.932 155.786C139.905 155.57 139.835 155.361 139.728 155.172C139.62 154.983 139.477 154.817 139.306 154.685C139.135 154.552 138.939 154.456 138.731 154.4C138.523 154.345 138.306 154.331 138.093 154.361C137.854 154.387 137.624 154.469 137.423 154.601C130.03 156.822 122.497 158.53 114.876 159.714C112.774 160.033 113.693 157.717 113.969 156.505C114.416 154.814 114.784 153.11 115.073 151.379C115.343 148.879 115.006 146.35 114.09 144.013C113.174 141.675 111.707 139.601 109.817 137.971C108.846 137.049 107.615 136.458 106.296 136.28C105.466 136.319 104.653 136.535 103.911 136.913C103.168 137.292 102.512 137.825 101.986 138.477V138.477Z" fill="white"/>
<path d="M133.06 117.332C133.044 115.495 132.934 113.659 132.732 111.833C132.561 110.235 132.312 108.624 131.996 107.053C131.984 106.585 131.871 106.125 131.664 105.707C131.458 105.288 131.163 104.92 130.8 104.63C128.371 103.11 125.562 102.329 122.707 102.38C121.016 102.144 119.301 102.585 117.925 103.609C116.549 104.633 115.62 106.16 115.336 107.865C115.283 108.209 115.257 108.556 115.257 108.904C114.823 112.898 115.861 116.893 116.439 120.954C116.883 124.039 117.046 127.159 116.926 130.274C118.416 131.285 120.133 131.903 121.918 132.072C122.754 132.069 123.584 131.93 124.375 131.659C124.817 131.564 125.207 131.302 125.466 130.927C125.588 130.595 125.62 130.237 125.558 129.888C125.508 129.562 125.477 129.233 125.466 128.903V128.903C125.337 127.066 125.372 125.221 125.571 123.391C125.572 123.238 125.628 123.091 125.729 122.978C125.853 122.938 125.986 122.938 126.11 122.978H126.609C127.509 123.071 128.416 123.071 129.316 122.978C130.398 122.871 131.404 122.363 132.141 121.553C132.96 120.313 133.288 118.806 133.06 117.332V117.332Z" fill="#FDB9A9"/>
<path d="M131.103 117.599C130.919 117.306 130.63 116.973 130.314 117.079C129.999 117.186 129.973 117.425 129.881 117.665C129.532 118.649 128.996 119.554 128.304 120.328C127.9 120.805 127.46 121.25 126.99 121.66L126.097 122.459C126.904 122.762 127.748 122.955 128.606 123.031C129.033 123.066 129.463 123.01 129.868 122.868C130.272 122.726 130.644 122.5 130.958 122.206C131.303 121.813 131.579 121.362 131.773 120.874C132.021 120.427 132.194 119.941 132.285 119.436C132.317 119.194 132.293 118.948 132.216 118.717C132.138 118.486 132.009 118.277 131.839 118.105" fill="#DE9F93"/>
<path d="M129.434 105.335C130.919 104.976 133.047 104.816 133.796 103.392C134.058 102.69 134.089 101.921 133.883 101.201C133.676 100.481 133.245 99.8475 132.653 99.397C131.624 98.3374 130.359 97.5428 128.965 97.0795C127.57 96.6163 126.087 96.4978 124.638 96.734C123.738 96.9596 122.825 97.133 121.905 97.2533C120.67 97.3199 119.461 96.947 118.226 96.9071C116.051 96.9611 113.959 97.7695 112.301 99.1973C111.245 100.241 110.057 101.137 108.766 101.86C108.115 102.191 107.374 102.291 106.66 102.147C105.946 102.002 105.3 101.62 104.824 101.061C104.573 101.939 104.512 102.861 104.646 103.764C104.78 104.667 105.105 105.53 105.6 106.294C105.349 106.548 105.018 106.704 104.665 106.736C104.312 106.768 103.959 106.673 103.668 106.467C103.747 108.601 104.233 110.699 105.1 112.645C104.31 112.715 103.513 112.67 102.735 112.512C103.171 113.588 103.812 114.566 104.622 115.391C105.431 116.216 106.393 116.871 107.452 117.319C110.343 118.531 113.562 118.65 115.677 121.18C115.94 121.5 116.203 122.259 116.65 122.339C117.096 122.419 117.412 121.939 117.543 121.513C118.042 119.7 117.912 117.769 117.175 116.041C116.664 115.194 116.362 114.235 116.295 113.245C116.387 112.259 117.701 111.487 118.331 112.073C118.962 112.659 119.067 114.057 119.842 113.777C118.962 110.981 120.105 107.466 122.772 106.361C124.809 105.535 127.056 106.028 129.132 105.415L129.434 105.335Z" fill="#DD8049"/>
<path d="M126.53 122.978C124.435 122.585 122.388 121.969 120.421 121.14C120.237 127.611 125.427 128.956 125.427 128.956C125.297 127.119 125.332 125.274 125.532 123.444C125.533 123.291 125.589 123.145 125.689 123.031C125.813 122.991 125.946 122.991 126.07 123.031H126.53V122.978Z" fill="#DE9F93"/>
<path d="M235.52 186.77C263.058 186.77 285.383 164.147 285.383 136.24C285.383 108.332 263.058 85.7092 235.52 85.7092C207.981 85.7092 185.657 108.332 185.657 136.24C185.657 164.147 207.981 186.77 235.52 186.77Z" fill="white"/>
<path d="M385.32 310.972C377.436 313.635 369.828 317.377 370.039 321.185C370.275 325.446 337.979 326.205 334.813 325.765C335.404 324.434 334.905 322.21 335.456 320.892C323.621 318.069 311.977 314.475 300.598 310.133C285.606 304.474 267.75 303.676 251.983 302.144C216.783 298.682 180.756 299.335 146.528 309.201C139.081 311.196 131.876 314.023 125.046 317.63C123.053 318.52 121.369 319.995 120.21 321.864C118.292 325.645 120.802 330.226 123.942 333.035C128.79 337.389 135.097 339.693 141.338 341.477C161.782 347.413 183.131 349.481 204.314 347.575C213.512 346.75 222.906 345.165 232.051 346.75C241.196 348.334 249.487 352.954 258.434 355.351C267.382 357.748 278.143 357.375 284.397 350.531C285.961 348.827 287.236 346.75 289.246 345.631C291.755 344.22 294.843 344.619 297.707 345.019C324.476 348.781 351.616 348.978 378.435 345.604C380.629 345.325 383.046 344.899 384.413 343.128C385.425 341.796 385.635 339.959 386.739 338.707C388.21 337.016 390.68 336.923 392.953 336.936C406.191 337.002 419.418 336.152 432.542 334.393C436.011 333.927 439.597 333.355 442.514 331.384C445.431 329.413 447.455 325.645 446.351 322.277C445.485 320.214 444.03 318.461 442.173 317.244C430.715 308.402 415.697 304.954 401.441 306.818C395.968 307.773 390.578 309.162 385.32 310.972V310.972Z" fill="url(#paint1_linear)"/>
<path d="M242.155 313.569C242.155 316.658 252.561 319.161 265.398 319.161C278.235 319.161 288.628 316.658 288.628 313.569C288.72 312.408 288.72 311.241 288.628 310.08C286.973 307.417 277.066 307.963 265.398 307.963C254.164 307.963 244.376 307.524 242.155 310.08C242.017 311.239 242.017 312.41 242.155 313.569V313.569Z" fill="#354F52"/>
<path d="M265.398 315.686C278.228 315.686 288.628 313.176 288.628 310.08C288.628 306.984 278.228 304.474 265.398 304.474C252.569 304.474 242.168 306.984 242.168 310.08C242.168 313.176 252.569 315.686 265.398 315.686Z" fill="#354F52"/>
<path d="M265.398 315.686C278.228 315.686 288.628 313.176 288.628 310.08C288.628 306.984 278.228 304.474 265.398 304.474C252.569 304.474 242.168 306.984 242.168 310.08C242.168 313.176 252.569 315.686 265.398 315.686Z" fill="url(#paint2_linear)"/>
<path d="M394.74 322.13C407.57 322.13 417.97 319.62 417.97 316.525C417.97 313.429 407.57 310.919 394.74 310.919C381.911 310.919 371.51 313.429 371.51 316.525C371.51 319.62 381.911 322.13 394.74 322.13Z" fill="#4C506D"/>
<path d="M268.066 257.499H262.678V310.466H268.066V257.499Z" fill="#354F52"/>
<path d="M268.066 257.499H262.678V275.794H268.066V257.499Z" fill="url(#paint3_linear)"/>
<path d="M332.526 307.43V315.499H304.041C304.041 315.499 305.709 309.308 316.996 307.43L320.688 304.381L332.526 307.43Z" fill="#354F52"/>
<path d="M332.526 307.43V315.499H304.041C304.041 315.499 305.709 309.308 316.996 307.43L320.688 304.381L332.526 307.43Z" fill="url(#paint4_linear)"/>
<path d="M333.827 315.486H303.121V317.55H333.827V315.486Z" fill="#354F52"/>
<path d="M396.987 270.002H392.52V311.811H396.987V270.002Z" fill="#4C506D"/>
<path d="M371.55 316.485C371.55 319.574 381.956 322.09 394.78 322.09C407.603 322.09 418.023 319.574 418.023 316.485C418.102 315.323 418.102 314.158 418.023 312.996C416.367 310.333 406.46 310.879 394.78 310.879C383.559 310.879 373.757 310.44 371.55 312.996C371.405 314.154 371.405 315.326 371.55 316.485Z" fill="#2F3554"/>
<path d="M394.74 318.642C407.57 318.642 417.97 316.132 417.97 313.036C417.97 309.94 407.57 307.43 394.74 307.43C381.911 307.43 371.51 309.94 371.51 313.036C371.51 316.132 381.911 318.642 394.74 318.642Z" fill="#4C506D"/>
<path d="M387.658 262.386H426.09L435.288 211.789C435.572 210.207 435.225 208.576 434.323 207.253C433.422 205.93 432.039 205.023 430.479 204.732C430.11 204.667 429.736 204.636 429.362 204.639H403.084C401.687 204.639 400.334 205.135 399.259 206.039C398.184 206.944 397.455 208.2 397.197 209.592L387.658 262.386Z" fill="#4C506D"/>
<path d="M377.423 262.386H415.855L425.052 211.789C425.336 210.207 424.989 208.576 424.088 207.253C423.186 205.93 421.804 205.023 420.243 204.732C419.888 204.667 419.527 204.636 419.166 204.639H392.888C391.491 204.639 390.138 205.135 389.063 206.039C387.988 206.944 387.259 208.2 387.001 209.592L377.423 262.386Z" fill="#2F3554"/>
<path d="M418.811 254.756H391.114C386.956 254.756 383.585 258.172 383.585 262.386C383.585 266.599 386.956 270.015 391.114 270.015H418.811C422.969 270.015 426.34 266.599 426.34 262.386C426.34 258.172 422.969 254.756 418.811 254.756Z" fill="#4C506D"/>
<path d="M401.888 254.756H374.191C370.033 254.756 366.662 258.172 366.662 262.386C366.662 266.599 370.033 270.015 374.191 270.015H401.888C406.046 270.015 409.417 266.599 409.417 262.386C409.417 258.172 406.046 254.756 401.888 254.756Z" fill="#2F3554"/>
<path d="M407.735 191.111C407.459 190.775 407.165 190.455 406.855 190.152C402.361 185.785 395.029 186.251 390.457 186.384C386.394 186.57 382.322 186.45 378.277 186.024L376.529 185.811H375.951C372.916 185.478 369.277 185.505 368.265 188.687C367.082 192.482 366.951 197.023 366.412 200.964C364.783 212.734 363.876 224.212 363.39 236.009C362.93 246.434 376.608 247.26 383.953 247.26C386.444 247.322 388.937 247.171 391.403 246.807C393.663 246.421 395.713 245.476 397.972 245.05C399.145 244.927 400.258 244.465 401.178 243.718C402.427 242.493 402.427 240.483 402.427 238.725C402.384 234.236 402.745 229.753 403.504 225.33C403.911 223.133 404.542 220.989 404.923 218.806C405.353 217.021 405.951 215.282 406.71 213.613C409.824 205.637 412.281 196.65 407.735 191.111Z" fill="white"/>
<path d="M352.511 192.176C352.775 191.166 353.221 190.213 353.825 189.366C355.244 187.569 357.767 187.183 360.027 187.01C361.091 186.916 362.365 187.01 362.878 187.928C363.113 188.453 363.182 189.04 363.075 189.606C362.751 191.56 362.584 193.537 362.576 195.518C364.062 194.56 365.677 193.825 367.371 193.334C367.818 193.188 372.351 192.668 372.417 193.334C372.666 196.184 372.772 199.046 372.772 201.896C372.867 202.932 372.757 203.977 372.448 204.969C372.139 205.962 371.637 206.882 370.972 207.674C368.576 211.076 365.899 214.266 362.97 217.208C359.826 220.38 355.581 222.177 351.145 222.214C350.456 222.324 349.752 222.26 349.094 222.028C348.436 221.796 347.845 221.402 347.374 220.883C346.955 220.111 346.768 219.232 346.835 218.353C346.846 215.838 347.048 213.327 347.439 210.843C348.587 204.482 350.284 198.236 352.511 192.176V192.176Z" fill="white"/>
<path d="M356.282 197.662C356.505 196.011 356.282 192.149 357.596 191.124L357.832 190.991C358.119 190.851 358.431 190.77 358.749 190.752C359.067 190.735 359.386 190.781 359.686 190.889C359.987 190.997 360.263 191.163 360.499 191.38C360.736 191.596 360.928 191.857 361.065 192.149C361.265 192.863 361.31 193.613 361.196 194.346C361.08 196.122 361.128 197.905 361.341 199.672C361.472 200.737 361.813 201.989 362.825 202.335C363.19 202.423 363.568 202.437 363.938 202.375C364.308 202.313 364.662 202.178 364.98 201.976C366.754 201.109 368.406 200.008 369.894 198.7C370.223 198.421 370.643 198.101 371.05 198.247C371.296 198.369 371.498 198.564 371.628 198.807L382.455 215.743C383.362 217.168 384.176 219.298 383.152 220.43C382.127 221.562 380.235 221.176 378.816 220.55C374.639 218.696 370.892 215.974 367.818 212.561C367.606 212.281 367.319 212.068 366.99 211.949C366.76 211.941 366.531 211.981 366.317 212.066C366.102 212.15 365.907 212.278 365.742 212.441C363.781 213.919 361.682 215.199 359.475 216.263C357.832 217.022 355.533 217.594 354.508 215.996C354.088 215.133 353.99 214.145 354.232 213.214L356.282 197.662Z" fill="#D8DAE1"/>
<path d="M396.133 201.976C396.91 199.941 398.19 198.144 399.851 196.756C400.691 196.065 401.711 195.637 402.786 195.524C403.862 195.41 404.947 195.616 405.909 196.117C408.458 197.688 408.668 201.297 408.339 204.306C407.883 208.578 406.957 212.785 405.58 216.849C404.897 218.859 403.793 220.843 403.189 222.827C402.703 224.465 402.637 226.222 402.138 227.94C400.881 232.199 400.201 236.611 400.114 241.055C400.142 241.638 400.043 242.22 399.825 242.76C399.705 243.024 399.498 243.238 399.239 243.365C398.98 243.491 398.685 243.522 398.406 243.452C398.077 243.293 397.803 243.038 397.618 242.72C394.859 239.111 390.036 237.926 385.569 237.394C380.313 236.741 375.058 236.621 369.736 236.302C367.568 236.169 364.888 235.516 364.546 233.372C364.496 232.75 364.617 232.126 364.898 231.571C365.179 231.016 365.608 230.551 366.136 230.23C367.209 229.607 368.392 229.205 369.618 229.045C374.322 228.153 379.249 227.407 383.165 224.624C381.744 224.201 380.434 223.464 379.328 222.467C381.851 224.145 385.898 218.673 387.711 217.275C389.315 215.978 390.654 214.377 391.653 212.561C393.466 209.326 394.609 205.464 396.133 201.976Z" fill="#D8DAE1"/>
<path d="M382.468 189.406C383.042 189.273 383.644 189.353 384.163 189.633C384.68 189.913 385.258 190.06 385.845 190.059C385.875 190.104 385.897 190.153 385.911 190.205C386.079 190.57 386.175 190.964 386.193 191.367C386.211 191.769 386.151 192.17 386.015 192.549C385.88 192.927 385.672 193.275 385.404 193.572C385.136 193.869 384.812 194.109 384.452 194.28V194.28C384.133 194.393 383.829 194.545 383.546 194.732C383.338 194.993 383.186 195.294 383.1 195.617C383.014 195.941 382.996 196.279 383.046 196.61C383.152 202.135 381.549 207.528 380.287 212.907C378.802 219.165 377.778 225.663 378.724 232.041C378.789 232.379 378.789 232.728 378.724 233.066C378.616 233.299 378.469 233.51 378.29 233.692L375.491 236.874C374.664 235.543 372.758 235.13 372.312 233.652C372.203 233.217 372.172 232.766 372.22 232.321C372.717 226.374 373.732 220.483 375.255 214.718C376.662 208.122 378.541 201.638 380.878 195.318C380.997 195.089 381.047 194.83 381.023 194.573C380.969 194.361 380.875 194.162 380.747 193.987C379.972 192.655 381.233 189.886 382.468 189.406Z" fill="#354F52"/>
<path d="M396.698 186.331C392.756 185.971 388.88 185.731 384.978 185.598C382.35 185.518 378.96 184.826 376.542 185.851C377.129 185.882 377.713 185.953 378.29 186.064C382.336 186.477 386.407 186.597 390.47 186.424C395.056 186.277 402.374 185.811 406.881 190.179C404.476 187.329 400.456 186.663 396.698 186.331Z" fill="white"/>
<path d="M393.308 174.4C393.486 174.559 393.708 174.658 393.944 174.682C394.18 174.706 394.417 174.654 394.622 174.533C394.07 177.556 393.61 180.206 395.003 183.175C395.514 184.451 396.494 185.478 397.736 186.038C395.137 186.583 392.61 187.437 390.207 188.581C388.655 189.274 386.977 189.632 385.28 189.633C385.109 189.633 382.114 188.954 382.56 188.301C384.938 184.759 383.033 178.888 383.033 178.888C385.021 179.479 387.156 179.291 389.013 178.361C390.87 177.431 392.314 175.827 393.058 173.868C393.087 174.067 393.174 174.252 393.308 174.4Z" fill="#8C6239"/>
<path d="M390.746 151.845C390.746 151.845 374.611 150.7 374.309 162.071C374.244 164.426 374.452 166.781 374.926 169.088C375.084 169.9 375.281 170.685 375.504 171.444C377.58 178.382 382.166 183.068 387.777 181.391C397.565 178.488 403.806 154.814 390.746 151.845Z" fill="#A67C52"/>
<path d="M395.358 171.112C395.961 170.544 396.348 169.78 396.452 168.952C396.555 168.124 396.368 167.286 395.923 166.584C395.781 166.356 395.593 166.161 395.371 166.012C395.092 165.868 394.78 165.799 394.467 165.813C394.154 165.827 393.85 165.923 393.584 166.092C393.15 166.331 392.572 167.224 392.034 166.664C391.907 166.504 391.818 166.316 391.775 166.115C391.731 165.914 391.734 165.705 391.784 165.506C391.917 164.401 392.375 163.362 393.098 162.523C392.674 162.382 392.288 162.144 391.969 161.828C391.65 161.512 391.407 161.126 391.258 160.699C389.768 161.012 388.242 161.106 386.725 160.979C386.362 160.973 386.005 160.892 385.674 160.739C384.899 160.353 384.584 159.408 383.887 158.862C382.912 158.384 381.812 158.234 380.747 158.436C379.67 158.436 378.343 158.036 378.185 156.958C377.225 157.366 376.144 157.372 375.179 156.976C374.214 156.579 373.443 155.811 373.034 154.841C372.535 155.031 371.997 155.098 371.467 155.035C370.937 154.973 370.429 154.783 369.986 154.481C369.7 154.091 369.511 153.637 369.433 153.158C369.355 152.678 369.392 152.187 369.539 151.725C369.92 149.688 370.853 147.504 372.772 146.772C371.655 146.173 371.668 144.575 371.839 143.31C371.854 142.941 371.953 142.581 372.128 142.258C372.653 141.392 373.862 141.419 374.756 141.073C375.649 140.727 376.372 140.008 377.252 139.582C378.132 139.156 379.394 139.196 379.814 140.074C380.967 139.382 382.245 138.93 383.572 138.743C384.235 138.661 384.908 138.773 385.511 139.065C386.114 139.358 386.622 139.819 386.975 140.394C387.629 140.02 388.355 139.793 389.104 139.728C389.479 139.705 389.852 139.804 390.168 140.01C390.485 140.215 390.728 140.518 390.864 140.873C390.86 140.958 390.877 141.043 390.914 141.12C390.95 141.197 391.006 141.263 391.074 141.313C391.145 141.352 391.224 141.373 391.304 141.373C391.385 141.373 391.464 141.352 391.534 141.313C392.57 140.91 393.702 140.836 394.78 141.1C395.312 141.244 395.791 141.545 396.156 141.964C396.521 142.383 396.755 142.903 396.829 143.456C398.108 143.83 399.285 144.495 400.272 145.4C400.804 145.785 401.212 146.319 401.445 146.937C401.679 147.555 401.728 148.229 401.586 148.876C402.435 149.757 402.93 150.927 402.973 152.158C403.017 153.389 402.607 154.592 401.822 155.533C402.064 155.649 402.262 155.841 402.386 156.082C402.509 156.322 402.551 156.597 402.506 156.864C402.404 157.4 402.184 157.906 401.862 158.342C401.755 158.48 401.691 158.647 401.678 158.822C401.678 159.035 401.914 159.195 402.072 159.341C402.46 159.76 402.667 160.318 402.65 160.892C402.633 161.466 402.392 162.009 401.98 162.404C401.828 162.558 401.65 162.685 401.454 162.776C401.804 163.043 402.091 163.384 402.298 163.775C402.504 164.166 402.624 164.597 402.65 165.04C402.65 165.258 402.603 165.473 402.511 165.67C402.419 165.867 402.286 166.041 402.12 166.18C401.955 166.318 401.761 166.418 401.552 166.472C401.344 166.526 401.127 166.532 400.916 166.491C401.102 166.987 401.16 167.522 401.084 168.046C401.008 168.571 400.801 169.067 400.482 169.487C399.681 170.526 398.827 170.179 397.854 170.632C396.882 171.085 396.435 172.55 395.765 173.295C395.699 172.55 395.542 171.831 395.358 171.112Z" fill="#2F3554"/>
<path d="M361.262 238.632L339.135 250.123L320.74 304.048L331.843 310.972L353.615 266.207C353.615 266.207 373.928 259.936 379.42 258.112C384.912 256.288 391.745 238.978 391.745 238.978C366.925 238.805 361.262 238.632 361.262 238.632Z" fill="#2F3554"/>
<path d="M378.802 240.456L356.689 251.947L341.224 314.913L353.05 317.963L371.156 268.005C371.156 268.005 391.456 261.733 396.948 259.909C402.44 258.085 401.152 242.307 401.152 242.307C391.653 235.716 378.802 240.456 378.802 240.456Z" fill="#4C506D"/>
<path d="M401.113 188.874C397.657 188.035 389.13 206.383 389.13 206.383L375.373 192.376L367.174 195.505C367.174 195.505 379.473 226.129 389.695 223.226C399.917 220.324 409.548 198.381 409.548 198.381C410.849 194.612 404.582 189.713 401.113 188.874Z" fill="white"/>
<path d="M359.54 179.34C358.569 180.193 357.781 181.24 357.228 182.416C356.617 183.645 356.132 184.934 355.783 186.264C355.454 187.285 355.337 188.364 355.441 189.433C355.497 189.963 355.675 190.473 355.96 190.922C356.245 191.37 356.63 191.745 357.083 192.016C357.784 192.294 358.553 192.34 359.281 192.146C360.008 191.952 360.656 191.529 361.13 190.938C362.035 189.718 362.631 188.291 362.865 186.783C363.071 185.275 363.515 183.809 364.179 182.443C364.732 181.787 365.083 180.982 365.19 180.126C364.888 177.117 360.946 178.168 359.54 179.34Z" fill="#8C6239"/>
<path d="M373.021 190.392C373.652 193.614 370.17 194.905 367.503 194.28C366.699 194.121 365.943 193.775 365.295 193.268C363.758 192.029 363.272 189.899 362.26 188.195C361.551 186.996 360.565 185.998 359.869 184.799C359.473 184.223 359.229 183.553 359.16 182.854C359.091 182.155 359.2 181.45 359.475 180.805C360.342 179.207 362.457 178.874 364.271 178.874C365.199 178.781 366.136 178.913 367.004 179.26C367.92 179.776 368.676 180.542 369.185 181.471C370.959 184.199 372.256 187.217 373.021 190.392V190.392Z" fill="#A67C52"/>
<path d="M133.494 243.532C133.494 254.916 190.479 264.157 260.773 264.157C331.068 264.157 388.039 254.916 388.039 243.532C388.039 243.052 388.236 237.34 388.039 236.874C383.598 226.142 328.151 222.907 260.773 222.907C194.867 222.907 140.011 226.475 133.494 236.874C133.06 237.567 133.494 242.813 133.494 243.532Z" fill="#354F52"/>
<path d="M388.039 243.532C388.039 254.916 331.068 264.157 260.773 264.157C190.479 264.157 133.494 254.916 133.494 243.532C133.494 242.2 133.363 240.869 133.494 239.537C133.639 238.721 133.953 237.945 134.414 237.26C134.829 235.936 135.688 234.8 136.842 234.049C137.996 233.298 139.372 232.978 140.734 233.146C143.677 233.146 146.616 233.208 149.55 233.332C153.603 233.473 157.646 233.819 161.664 234.371C164.66 234.81 167.643 235.423 170.665 235.609C176.906 235.969 183.094 234.491 189.336 234.278C189.797 234.238 190.261 234.265 190.715 234.358C191.215 234.516 191.695 234.73 192.147 234.997C194.401 236.17 196.957 236.607 199.466 236.248C222.105 237.806 244.678 236.248 267.211 233.585C286.04 231.362 304.855 228.659 323.802 228.166C343.616 227.647 363.42 229.551 382.784 233.838C385.411 234.411 388.578 235.689 388.709 238.405C388.801 240.216 386.857 242.054 388.039 243.532Z" fill="url(#paint5_linear)"/>
<path d="M260.773 257.499C331.068 257.499 388.052 248.265 388.052 236.874C388.052 225.483 331.068 216.249 260.773 216.249C190.479 216.249 133.494 225.483 133.494 236.874C133.494 248.265 190.479 257.499 260.773 257.499Z" fill="#354F52"/>
<path d="M353.063 317.963V326.018H324.577C324.577 326.018 326.246 319.84 337.532 317.963L341.224 314.913L353.063 317.963Z" fill="#354F52"/>
<path d="M353.063 317.963V326.018H324.577C324.577 326.018 326.246 319.84 337.532 317.963L341.224 314.913L353.063 317.963Z" fill="url(#paint6_linear)"/>
<path d="M354.35 326.018H323.644V328.082H354.35V326.018Z" fill="#354F52"/>
<path d="M395.2 184.666C395.628 184.533 396.086 184.533 396.514 184.666C397.184 184.959 397.473 185.811 398.156 186.078C396.58 187.529 394.451 188.208 392.651 189.353C390.782 190.676 389.109 192.263 387.685 194.067C385.99 193.121 386.095 190.445 384.61 189.18C385.667 188.897 386.673 188.448 387.593 187.848C388.334 187.505 389.046 187.1 389.721 186.637C391.416 185.652 393.272 184.984 395.2 184.666V184.666Z" fill="white"/>
<path d="M380.642 185.678C380.103 186.16 379.618 186.7 379.197 187.289L377.515 189.46C377.431 189.545 377.365 189.647 377.322 189.759C377.279 189.871 377.26 189.992 377.265 190.112C377.316 190.251 377.414 190.366 377.542 190.437C377.67 190.508 377.819 190.53 377.962 190.498C378.24 190.416 378.512 190.314 378.776 190.192C379.399 190.07 380.036 190.034 380.668 190.085C381.448 190.006 382.21 189.803 382.928 189.486C382.973 189.479 383.017 189.462 383.055 189.437C383.094 189.412 383.126 189.379 383.151 189.34C383.178 189.257 383.178 189.169 383.151 189.087C383.114 188.325 383.23 187.564 383.493 186.85C383.677 186.317 384.032 185.705 383.677 185.159C383.033 184.107 381.312 185.132 380.642 185.678Z" fill="white"/>
<path d="M343.642 226.489L310.531 227.993L320.688 239.977L357.136 236.874L343.642 226.489Z" fill="white"/>
<path d="M205.996 226.489C207.849 226.675 238.555 235.676 238.555 235.676L220.791 249.537L185.657 239.977L205.996 226.489Z" fill="white"/>
<path d="M351.25 290.906H346.782V332.716H351.25V290.906Z" fill="#4C506D"/>
<path d="M351.25 290.906H346.782V332.716H351.25V290.906Z" fill="url(#paint7_linear)"/>
<path d="M325.773 337.429C325.773 340.531 336.179 343.035 349.016 343.035C361.853 343.035 372.246 340.531 372.246 337.429C372.325 336.268 372.325 335.102 372.246 333.941C370.59 331.278 360.684 331.837 349.016 331.837C337.782 331.837 327.993 331.397 325.773 333.941C325.628 335.099 325.628 336.271 325.773 337.429Z" fill="#2F3554"/>
<path d="M349.016 339.546C361.846 339.546 372.246 337.036 372.246 333.941C372.246 330.845 361.846 328.335 349.016 328.335C336.186 328.335 325.786 330.845 325.786 333.941C325.786 337.036 336.186 339.546 349.016 339.546Z" fill="#4C506D"/>
<path d="M328.282 205.504C313.264 201.976 305.722 183.521 291.059 178.688C290.586 178.502 290.061 178.502 289.587 178.688C289.189 178.955 288.889 179.348 288.733 179.806L285.383 187.263L305.499 210.897C307.001 212.79 308.692 214.521 310.544 216.063C314.854 219.392 320.412 220.484 325.746 221.469C328.913 222.068 332.211 222.641 335.299 221.735C339.332 220.55 343.97 214.905 342.643 210.324C341.198 205.304 332.421 206.476 328.282 205.504Z" fill="white"/>
<path d="M306.222 282.172C306.156 284.631 306.603 287.077 307.536 289.349H307.667C310.295 289.282 312.818 289.349 315.393 289.508C319.673 289.858 323.928 290.463 328.138 291.319C330.082 291.692 332.08 292.092 333.972 292.491C335.864 292.89 337.677 293.263 339.53 293.623C343.051 294.328 346.441 294.954 349.726 295.407C353.98 293.582 357.778 290.816 360.841 287.311C361.183 286.925 361.498 286.539 361.814 286.153C362.221 285.636 362.603 285.098 362.957 284.542C364.023 282.981 364.716 281.189 364.98 279.309C365.059 278.546 365.032 277.775 364.901 277.019C364.22 274.427 362.614 272.183 360.395 270.721L359.698 270.215C355.011 266.921 349.394 265.262 343.695 265.488C343.216 265.475 342.737 265.502 342.262 265.568C339.221 265.796 336.208 266.313 333.262 267.113C328.585 268.324 323.907 270.029 319.295 271.52C315.877 272.439 312.607 273.851 309.585 275.714C308.716 276.282 307.959 277.009 307.352 277.858C306.578 279.158 306.186 280.654 306.222 282.172V282.172Z" fill="#3E3E54"/>
<path d="M306.629 289.708C307.233 292.837 307.759 296.006 308.232 299.162C309.33 306.532 310.063 313.953 310.426 321.398C310.519 322.092 310.451 322.798 310.229 323.462C309.454 325.419 306.813 325.512 304.737 325.499C302.661 325.486 299.941 326.338 299.994 328.441C299.994 330.079 301.781 331.038 303.305 331.57C307.876 333.158 312.69 333.911 317.521 333.794C318.112 333.822 318.702 333.727 319.256 333.514C322.527 332.05 319.939 328.188 319.597 325.952C319.098 322.689 320.346 319.094 321.121 315.979C322.948 308.722 327.783 302.158 327.573 294.435C327.417 293.454 327.598 292.448 328.085 291.586C328.992 290.454 332.815 292.278 334.024 292.531C335.877 292.917 337.729 293.303 339.582 293.663C349.528 295.633 358.726 297.884 368.961 295.953C369.567 295.883 370.15 295.679 370.669 295.354C371.283 294.808 371.715 294.082 371.904 293.277C373.344 288.723 372.962 283.779 370.84 279.509C368.344 274.516 364.389 272.545 359.751 270.188C354.416 267.445 349.909 265.382 343.747 265.555C343.268 265.542 342.789 265.568 342.315 265.635C339.264 265.887 336.243 266.422 333.288 267.232C325.773 269.203 308.468 271.973 305.591 280.8C304.684 283.583 305.827 285.82 306.379 288.523C306.458 288.869 306.537 289.282 306.629 289.708Z" fill="#3E3E54"/>
<path d="M306.629 289.708C307.233 292.837 307.759 296.006 308.232 299.162C309.33 306.532 310.063 313.953 310.426 321.398C310.519 322.092 310.451 322.798 310.229 323.462C309.454 325.419 306.813 325.512 304.737 325.499C302.661 325.486 299.941 326.338 299.994 328.441C299.994 330.079 301.781 331.038 303.305 331.57C307.876 333.158 312.69 333.911 317.521 333.794C318.112 333.822 318.702 333.727 319.256 333.514C322.527 332.05 319.939 328.188 319.597 325.952C319.098 322.689 320.346 319.094 321.121 315.979C322.948 308.722 327.783 302.158 327.573 294.435C327.417 293.454 327.598 292.448 328.085 291.586C328.992 290.454 332.815 292.278 334.024 292.531C335.877 292.917 337.729 293.303 339.582 293.663C349.528 295.633 358.726 297.884 368.961 295.953C369.567 295.883 370.15 295.679 370.669 295.354C371.283 294.808 371.715 294.082 371.904 293.277C373.344 288.723 372.962 283.779 370.84 279.509C368.344 274.516 364.389 272.545 359.751 270.188C354.416 267.445 349.909 265.382 343.747 265.555C343.268 265.542 342.789 265.568 342.315 265.635C339.264 265.887 336.243 266.422 333.288 267.232C325.773 269.203 308.468 271.973 305.591 280.8C304.684 283.583 305.827 285.82 306.379 288.523C306.458 288.869 306.537 289.282 306.629 289.708Z" fill="url(#paint8_linear)"/>
<path d="M292.465 290.534C290.023 293.545 288.075 296.935 286.697 300.573C284.897 304.648 274.556 348.321 274.188 348.228L282.006 350.318C291.018 337.248 298.534 323.181 304.408 308.389C306.103 304.142 306.195 303.742 310.755 302.837C314.762 302.051 318.77 301.186 322.738 300.174C330.495 298.335 338.106 295.914 345.508 292.93C349.992 291.162 354.285 288.931 358.318 286.273C358.892 285.809 359.408 285.277 359.856 284.688C360.064 284.426 360.248 284.145 360.408 283.85C361.118 282.695 361.458 281.346 361.38 279.988C361.365 279.627 361.303 279.268 361.196 278.923C360.909 278.143 360.515 277.408 360.027 276.739C359.269 275.703 358.307 274.837 357.202 274.196C354.423 272.161 351.146 270.936 347.728 270.654C345.429 270.521 343.143 270.987 340.87 270.867C338.833 270.748 337.427 269.616 335.614 269.336C334.237 269.173 332.841 269.3 331.515 269.709C328.475 270.746 325.544 272.084 322.764 273.704L306.353 282.012H306.235L302.95 283.676C299.508 285.434 295.566 287.178 292.833 290.001L292.465 290.534Z" fill="#3E3E54"/>
<path d="M262.639 346.137C261.202 346.236 259.812 346.693 258.592 347.469C257.996 347.871 257.546 348.459 257.309 349.143C257.072 349.828 257.061 350.572 257.278 351.263C257.776 352.197 258.573 352.93 259.538 353.34C265.249 356.166 271.595 357.41 277.933 356.949C278.83 357.003 279.72 356.76 280.469 356.256C281.113 355.593 281.531 354.74 281.665 353.82C282.241 352.153 282.363 350.359 282.019 348.627C280.968 345.125 277.132 345.884 274.399 345.738C270.475 345.511 266.539 345.645 262.639 346.137V346.137Z" fill="#3E3E54"/>
<path d="M226.572 250.376V255.156H417.09C417.392 253.558 417.668 251.96 417.931 250.376H226.572Z" fill="#354F52"/>
<path d="M226.572 250.376V255.156H417.09C417.392 253.558 417.668 251.96 417.931 250.376H226.572Z" fill="url(#paint9_linear)"/>
<path d="M320.228 191.763C319.571 192.589 318.533 193.481 318.914 194.426C319.137 194.945 319.716 195.198 320.162 195.545C321.294 196.571 321.986 198.004 322.094 199.539C322.198 201.062 322.554 202.556 323.145 203.96C323.456 204.65 323.995 205.21 324.668 205.542C325.342 205.875 326.108 205.96 326.837 205.784C327.665 205.451 328.44 204.612 329.281 204.878C330.122 205.145 330.214 205.864 330.595 206.436C331.116 207.1 331.812 207.601 332.603 207.882C333.393 208.162 334.246 208.21 335.062 208.021C336.69 207.612 338.225 206.888 339.582 205.89C340.169 205.59 340.66 205.129 341.001 204.559C341.199 203.999 341.199 203.387 341.001 202.828C340.329 201.148 339.343 199.615 338.097 198.314C336.043 195.658 334.667 192.53 334.09 189.207C333.683 186.903 333.577 184.307 331.974 182.642C329.78 180.379 325.024 180.871 322.777 182.922C320.228 185.039 322.251 189.113 320.228 191.763Z" fill="url(#paint10_linear)"/>
<path d="M322.107 180.871C322.438 181.44 322.92 181.901 323.5 182.203C324.643 182.762 325.641 183.441 326.758 184.054C327.818 184.649 328.616 185.629 328.992 186.797C329.622 188.927 328.703 191.43 329.57 193.454C329.872 193.854 330.529 193.454 330.766 193.081C331.002 192.708 331.094 192.083 331.488 191.75C332.158 191.257 333.104 191.896 333.485 192.642C333.889 193.526 333.945 194.533 333.643 195.458C333.34 196.383 332.701 197.157 331.856 197.622C332.027 198.287 332.907 198.474 333.577 198.314C334.217 198.06 334.89 197.903 335.575 197.848C337.138 197.995 337.94 200.205 339.516 200.285C340.581 200.285 341.408 199.326 342.026 198.421L343.681 196.037C343.931 195.589 344.221 195.166 344.549 194.772C344.943 194.386 345.639 194.293 345.941 193.854C346.244 193.414 345.771 192.522 346.125 191.95C346.295 191.746 346.505 191.583 346.743 191.47C347.256 191.127 347.64 190.618 347.831 190.025C348.021 189.433 348.009 188.792 347.794 188.208C347.713 188.072 347.676 187.914 347.689 187.755C347.689 187.542 347.965 187.422 348.149 187.303C348.684 186.861 349.048 186.242 349.176 185.554C349.304 184.867 349.186 184.156 348.845 183.548C348.127 182.352 347.141 181.344 345.968 180.605C343.55 178.794 341.027 176.691 340.318 173.735C340.21 172.93 339.989 172.145 339.661 171.404C339.475 171.048 339.162 170.778 338.786 170.649C338.409 170.52 337.998 170.543 337.637 170.712C337.83 169.166 337.723 167.596 337.322 166.092C337.241 165.725 337.084 165.381 336.862 165.08C336.624 164.83 336.324 164.649 335.994 164.555C335.664 164.462 335.315 164.459 334.983 164.547C334.321 164.734 333.698 165.041 333.144 165.453C333.144 164.707 332.172 164.414 331.436 164.441C330.036 164.492 328.673 164.911 327.48 165.655C326.287 166.4 325.305 167.445 324.63 168.688C324.527 168.91 324.394 169.116 324.235 169.301C323.927 169.554 323.581 169.756 323.211 169.9C322.651 170.227 322.171 170.676 321.805 171.215C321.439 171.754 321.197 172.369 321.095 173.016C320.898 174.313 320.898 175.633 321.095 176.93C321.161 177.934 321.346 178.927 321.647 179.886C321.755 180.234 321.91 180.566 322.107 180.871Z" fill="#DD8049"/>
<path d="M336.902 203.174C335.263 204.093 333.683 205.116 332.172 206.236C331.694 206.585 331.303 207.04 331.028 207.568C330.88 207.841 330.802 208.148 330.802 208.46C330.802 208.772 330.88 209.079 331.028 209.352C331.554 210.111 332.539 209.712 333.302 209.352C336.794 207.747 340.559 206.843 344.391 206.689C344.654 206.706 344.918 206.648 345.15 206.521C345.382 206.394 345.575 206.203 345.705 205.97C345.771 205.702 345.778 205.422 345.726 205.151C345.674 204.879 345.563 204.623 345.403 204.399C343.051 200.391 339.924 201.35 336.902 203.174Z" fill="white"/>
<path d="M330.214 253.052C327.586 247.526 326.272 241.801 324.393 236.035C320.07 239.457 319.637 245.715 315.721 249.896C315.152 250.549 314.487 251.111 313.75 251.561C311.123 253.079 307.365 252.413 304.474 252.213C303 252.103 301.608 251.483 300.532 250.456C299.863 249.577 299.494 248.502 299.481 247.393C299.245 243.598 301.373 240.123 303.423 236.954L317.6 214.944C318.095 213.96 318.813 213.108 319.694 212.458C320.575 211.808 321.596 211.378 322.672 211.203C331.635 208.502 340.747 206.341 349.962 204.732C351.342 204.424 352.76 204.334 354.166 204.466C358.108 205.051 360.736 208.82 362.668 212.308C373.047 230.536 380.405 251.241 379.249 272.226C379.225 273.363 379.048 274.492 378.724 275.581C378.035 277.21 376.923 278.619 375.505 279.655C370.88 283.357 364.783 284.742 358.897 284.795C350.093 284.875 338.491 282.132 331.922 275.781C328.217 272.159 331.922 269.975 333.709 266.46C335.929 261.893 332.211 257.14 330.214 253.052Z" fill="white"/>
<path d="M374.072 238.286C373.447 235.493 372.544 232.772 371.379 230.164C366.294 233.932 362.484 241.108 360.592 247.247C358.7 253.385 357.149 259.736 353.286 264.782L349.108 263.318L348.333 265.981C347.728 268.098 349.476 270.255 349.292 272.385C349.087 273.482 348.573 274.495 347.813 275.303C347.054 276.111 346.079 276.679 345.008 276.939C342.548 277.417 340.006 277.233 337.637 276.406C336.086 276.093 334.621 275.444 333.341 274.502C332.706 274.027 332.22 273.376 331.943 272.627C331.665 271.877 331.608 271.063 331.777 270.282C331.275 270.591 330.889 271.062 330.682 271.619C330.474 272.177 330.458 272.789 330.634 273.357C331.004 274.492 331.7 275.488 332.631 276.22C335.548 278.883 339.201 280.215 342.88 281.653C344.599 282.358 346.353 282.972 348.136 283.49C352.279 284.432 356.517 284.879 360.762 284.822C363.39 284.888 364.875 284.475 366.018 281.906C367.647 278.217 367.766 274.063 368.16 270.042C369.326 259.319 371.303 248.702 374.072 238.286V238.286Z" fill="url(#paint11_linear)"/>
<path d="M360.027 276.846C360.027 277.991 360.027 279.163 360.105 280.348C360.184 281.533 360.263 282.731 360.408 283.956C360.424 284.229 360.459 284.5 360.513 284.768C360.618 285.607 360.749 286.446 360.894 287.311C360.9 287.326 360.903 287.342 360.903 287.358C360.903 287.374 360.9 287.39 360.894 287.405L361.17 288.843C360.762 291.451 361.09 294.124 362.116 296.552V296.552C364.455 296.636 366.797 296.601 369.132 296.446C373.676 296.16 378.173 295.347 382.534 294.022C387 291.707 391.122 288.766 394.78 285.288C395.792 284.413 396.6 283.321 397.145 282.092C397.538 280.759 397.672 279.362 397.539 277.978C397.396 270.293 398.379 262.628 400.456 255.236C400.916 253.625 401.428 252.027 401.98 250.456C402.611 248.658 403.294 246.9 404.082 245.13C405.882 241.015 408.024 237.007 408.878 232.6C409.325 230.191 409.351 227.722 408.957 225.304C408.932 224.873 408.77 224.462 408.497 224.132C408.286 223.966 408.046 223.845 407.789 223.774C407.532 223.703 407.263 223.685 406.999 223.719C401.52 223.866 396.488 227.048 391.127 227.98C388.355 228.459 385.464 228.326 382.771 229.138C378.989 230.468 375.767 233.066 373.639 236.501C372.434 238.265 371.366 240.122 370.446 242.054C369.04 244.956 367.726 247.726 366.504 250.416C365.795 252.027 365.125 253.625 364.507 255.196C362.495 260.161 361.092 265.357 360.329 270.668V270.761C360.1 272.781 359.999 274.813 360.027 276.846V276.846Z" fill="#3E3E54"/>
<path d="M360.027 276.846C360.027 277.991 360.027 279.163 360.105 280.348C360.184 281.533 360.263 282.731 360.408 283.956C360.424 284.229 360.459 284.5 360.513 284.768C360.618 285.607 360.749 286.446 360.894 287.311C360.9 287.326 360.903 287.342 360.903 287.358C360.903 287.374 360.9 287.39 360.894 287.405L361.17 288.843C360.762 291.451 361.09 294.124 362.116 296.552V296.552C364.455 296.636 366.797 296.601 369.132 296.446C373.676 296.16 378.173 295.347 382.534 294.022C387 291.707 391.122 288.766 394.78 285.288C395.792 284.413 396.6 283.321 397.145 282.092C397.538 280.759 397.672 279.362 397.539 277.978C397.396 270.293 398.379 262.628 400.456 255.236C400.916 253.625 401.428 252.027 401.98 250.456C402.611 248.658 403.294 246.9 404.082 245.13C405.882 241.015 408.024 237.007 408.878 232.6C409.325 230.191 409.351 227.722 408.957 225.304C408.932 224.873 408.77 224.462 408.497 224.132C408.286 223.966 408.046 223.845 407.789 223.774C407.532 223.703 407.263 223.685 406.999 223.719C401.52 223.866 396.488 227.048 391.127 227.98C388.355 228.459 385.464 228.326 382.771 229.138C378.989 230.468 375.767 233.066 373.639 236.501C372.434 238.265 371.366 240.122 370.446 242.054C369.04 244.956 367.726 247.726 366.504 250.416C365.795 252.027 365.125 253.625 364.507 255.196C362.495 260.161 361.092 265.357 360.329 270.668V270.761C360.1 272.781 359.999 274.813 360.027 276.846V276.846Z" fill="url(#paint12_linear)"/>
<path d="M285.212 173.522C282.269 170.992 279.221 168.395 275.542 167.17C275.304 167.045 275.041 166.98 274.773 166.98C274.506 166.98 274.242 167.045 274.004 167.17C273.772 167.377 273.618 167.659 273.571 167.969C273.499 168.637 273.581 169.312 273.809 169.942C274.037 170.573 274.405 171.141 274.885 171.604C275.832 172.533 276.686 173.554 277.434 174.653C276.058 174.402 274.644 174.465 273.295 174.84C273.029 174.893 272.786 175.027 272.599 175.226C272.509 175.403 272.468 175.602 272.479 175.801C272.491 176 272.555 176.192 272.664 176.358C273.198 177.165 273.916 177.829 274.758 178.292C275.6 178.756 276.541 179.006 277.499 179.021C277.859 179.033 278.209 179.143 278.511 179.34C279.155 179.886 278.735 180.938 278.853 181.764C278.947 182.16 279.13 182.53 279.387 182.844C279.644 183.158 279.97 183.408 280.338 183.574C281.047 183.947 281.849 184.134 282.597 184.453C283.684 185.17 284.884 185.692 286.145 185.998C288.628 186.104 291.112 182.762 291.138 180.392C291.19 177.809 286.933 175 285.212 173.522Z" fill="url(#paint13_linear)"/>
<path d="M142.744 290.321H138.277V332.13H142.744V290.321Z" fill="#4C506D"/>
<path d="M142.744 290.321H138.277V332.13H142.744V290.321Z" fill="url(#paint14_linear)"/>
<path d="M163.74 336.843C163.74 339.932 153.334 342.435 140.497 342.435C127.66 342.435 117.267 339.932 117.267 336.843C117.188 335.682 117.188 334.516 117.267 333.355C118.923 330.692 128.83 331.238 140.497 331.238C151.731 331.238 161.52 330.798 163.74 333.355C163.885 334.513 163.885 335.685 163.74 336.843Z" fill="#2F3554"/>
<path d="M140.497 338.96C153.327 338.96 163.727 336.451 163.727 333.355C163.727 330.259 153.327 327.749 140.497 327.749C127.668 327.749 117.267 330.259 117.267 333.355C117.267 336.451 127.668 338.96 140.497 338.96Z" fill="#4C506D"/>
<path d="M183.292 281.573C183.357 284.032 182.91 286.478 181.978 288.749H181.846C179.218 288.749 176.709 288.749 174.133 288.909C169.85 289.26 165.589 289.864 161.375 290.72C159.431 291.093 157.434 291.492 155.555 291.892L149.984 293.037C146.462 293.729 143.072 294.368 139.788 294.808C135.539 292.972 131.744 290.207 128.672 286.712L127.7 285.554C127.305 285.048 126.924 284.515 126.57 283.956C125.494 282.399 124.796 280.606 124.533 278.723C124.448 277.96 124.474 277.188 124.612 276.433C125.293 273.837 126.898 271.589 129.119 270.122L129.815 269.616C134.502 266.322 140.119 264.663 145.819 264.889C146.297 264.876 146.776 264.902 147.251 264.969C150.296 265.197 153.314 265.714 156.264 266.513C160.929 267.725 165.606 269.429 170.218 270.921C173.635 271.85 176.904 273.267 179.928 275.128C180.799 275.688 181.558 276.411 182.162 277.259C182.935 278.559 183.327 280.055 183.292 281.573Z" fill="#3E3E54"/>
<path d="M182.897 289.109C182.28 292.251 181.754 295.407 181.281 298.576C180.637 302.93 180.361 307.364 179.652 311.691C178.942 316.019 179.1 320.306 178.338 324.567C177.997 326.169 177.812 327.801 177.786 329.44C177.988 331.702 178.557 333.916 179.468 335.991C179.35 336.271 178.942 336.244 178.64 336.164C176.938 335.776 175.288 335.182 173.726 334.393C172.147 333.598 170.895 332.264 170.192 330.625C169.259 328.188 170.087 325.619 169.982 323.115C169.702 320.474 169.156 317.868 168.352 315.34C166.526 308.083 161.704 301.519 161.901 293.809C162.07 292.824 161.889 291.809 161.389 290.946C160.482 289.815 156.658 291.652 155.463 291.892L149.892 293.037C139.945 294.994 130.761 297.244 120.526 295.327C119.917 295.244 119.331 295.036 118.804 294.715C118.19 294.169 117.759 293.443 117.569 292.637C116.15 288.082 116.531 283.146 118.634 278.87C121.13 273.89 125.085 271.906 129.723 269.549C135.058 266.886 139.564 264.743 145.727 264.916C146.205 264.902 146.684 264.929 147.159 264.996C150.214 265.247 153.24 265.781 156.199 266.593C163.701 268.564 181.005 271.333 183.883 280.161C184.789 282.957 183.659 285.181 183.108 287.897C183.055 288.283 182.976 288.696 182.897 289.109Z" fill="url(#paint15_linear)"/>
<path d="M169.561 329.4C169.647 329.303 169.75 329.222 169.863 329.16C170.336 328.961 170.77 329.507 171.046 329.959C172.209 331.891 173.948 333.397 176.012 334.26C176.262 334.394 176.552 334.432 176.827 334.367C177.129 334.247 177.287 333.901 177.537 333.674C177.72 333.529 177.935 333.432 178.164 333.39C178.393 333.348 178.629 333.363 178.85 333.435C179.299 333.599 179.72 333.832 180.099 334.127C181.28 334.916 182.393 335.807 183.423 336.79C183.948 337.323 184.461 338.121 184.146 338.787C183.935 339.146 183.604 339.415 183.213 339.546C181.771 340.008 180.216 339.951 178.811 339.386C176.183 338.508 173.831 336.87 171.256 335.845C171.081 335.754 170.887 335.708 170.691 335.711C170.544 335.734 170.399 335.77 170.257 335.818C170.024 335.79 169.799 335.708 169.601 335.579C169.403 335.45 169.236 335.276 169.114 335.072C168.456 334.249 168.136 333.202 168.219 332.146C168.302 331.09 168.783 330.107 169.561 329.4V329.4Z" fill="#3E3E54"/>
<path d="M195.261 290.693C196.391 293.664 196.931 296.831 196.851 300.014C196.851 308.163 194.617 316.125 192.436 323.981C191.517 327.283 190.741 330.638 189.664 333.954C188.876 336.324 187.825 338.082 189.336 340.545C189.662 341.008 189.965 341.488 190.242 341.983C190.365 342.239 190.414 342.526 190.381 342.809C190.348 343.092 190.236 343.36 190.058 343.581C189.467 344.127 188.534 343.767 187.798 343.474C186.011 342.956 184.256 342.329 182.543 341.597C179.31 339.746 180.559 337.402 181.071 334.566C181.702 331.144 182.122 327.643 182.477 324.181C183.354 317.133 183.177 309.991 181.951 302.997C181.856 302.168 181.533 301.384 181.018 300.733C180.355 300.177 179.538 299.842 178.68 299.774C166.854 297.657 155.292 297.018 144.005 292.384C139.525 290.616 135.237 288.385 131.208 285.727C130.624 285.271 130.103 284.738 129.657 284.142C129.46 283.876 129.276 283.597 129.106 283.317C128.407 282.153 128.069 280.803 128.133 279.442C128.161 279.082 128.223 278.726 128.317 278.377C128.617 277.605 129.015 276.875 129.5 276.207C130.258 275.167 131.219 274.296 132.325 273.65C135.105 271.626 138.374 270.402 141.785 270.108C144.084 269.989 146.37 270.455 148.644 270.322C150.68 270.215 152.086 269.07 153.899 268.79C155.276 268.627 156.672 268.754 157.999 269.163C161.036 270.206 163.966 271.544 166.749 273.158L176.932 278.311C181.649 280.694 187.443 282.305 191.582 285.62C193.22 286.961 194.488 288.709 195.261 290.693Z" fill="url(#paint16_linear)"/>
<path d="M184.5 273.317C188.813 276.021 192.388 279.778 194.897 284.244C197.406 288.711 198.769 293.744 198.861 298.882C190.495 305.248 180.852 309.676 170.612 311.851C169.445 312.197 168.205 312.197 167.038 311.851C166.075 311.355 165.229 310.656 164.555 309.8C155.174 300.041 138.658 301.013 128.803 291.732C125.072 288.217 122.641 282.159 125.584 277.938C126.783 276.447 128.272 275.223 129.96 274.343C137.62 269.722 146.646 262.812 155.909 264.41C165.173 266.007 176.499 268.431 184.5 273.317Z" fill="#354F52"/>
<path d="M188.114 306.126C183.423 301.053 182.556 293.569 181.925 286.632C180.589 287.818 179.077 288.784 177.445 289.495L176.643 287.338C176.62 287.159 176.529 286.996 176.389 286.884C176.249 286.772 176.071 286.72 175.894 286.739C175.796 286.754 175.702 286.791 175.618 286.845C168.934 289.122 161.936 290.308 154.885 290.361C152.257 290.361 149.327 290.161 147.119 288.59C144.912 287.019 143.769 283.637 145.385 281.453C139.69 283.025 133.889 284.169 128.028 284.875C127.787 284.866 127.546 284.907 127.321 284.994C127.095 285.08 126.889 285.212 126.714 285.381C126.267 285.967 126.714 286.819 127.095 287.418C131.793 294.087 138.856 298.654 146.804 300.16C149.025 300.573 160.797 305.02 166.079 312.011C166.449 312.455 166.935 312.784 167.481 312.96C168.027 313.137 168.612 313.154 169.167 313.009L188.114 306.126Z" fill="url(#paint17_linear)"/>
<path d="M117.136 286.992C115.362 286.992 113.299 287.285 112.393 288.816C112.134 289.298 111.998 289.838 111.998 290.387C111.998 290.936 112.134 291.476 112.393 291.958C112.929 292.918 113.746 293.686 114.731 294.155C115.983 294.729 117.311 295.115 118.673 295.3C124.31 296.379 129.946 297.457 135.596 298.469C138.448 298.975 141.325 299.468 144.189 299.921C146.476 300.28 148.578 301.412 150.903 301.865C153.229 302.317 156.317 302.637 158.261 300.959C158.868 300.428 159.328 299.746 159.595 298.98C159.862 298.215 159.928 297.391 159.786 296.592C159.705 296.033 159.458 295.512 159.076 295.101C158.772 294.82 158.426 294.591 158.051 294.422C153.904 292.568 149.535 291.27 145.057 290.56L135.859 288.683C133.072 287.911 130.23 287.363 127.358 287.045C123.955 286.912 120.591 286.899 117.136 286.992Z" fill="#3E3E54"/>
<path d="M117.136 286.992C115.362 286.992 113.299 287.285 112.393 288.816C112.134 289.298 111.998 289.838 111.998 290.387C111.998 290.936 112.134 291.476 112.393 291.958C112.929 292.918 113.746 293.686 114.731 294.155C115.983 294.729 117.311 295.115 118.673 295.3C124.31 296.379 129.946 297.457 135.596 298.469C138.448 298.975 141.325 299.468 144.189 299.921C146.476 300.28 148.578 301.412 150.903 301.865C153.229 302.317 156.317 302.637 158.261 300.959C158.868 300.428 159.328 299.746 159.595 298.98C159.862 298.215 159.928 297.391 159.786 296.592C159.705 296.033 159.458 295.512 159.076 295.101C158.772 294.82 158.426 294.591 158.051 294.422C153.904 292.568 149.535 291.27 145.057 290.56L135.859 288.683C133.072 287.911 130.23 287.363 127.358 287.045C123.955 286.912 120.591 286.899 117.136 286.992Z" fill="url(#paint18_linear)"/>
<path d="M262.941 249.776V254.57H72.3706C72.0684 252.972 71.7924 251.374 71.5297 249.776H262.941Z" fill="#354F52"/>
<path d="M166.789 182.216C166.148 181.728 165.44 181.337 164.686 181.058C162.44 180.206 159.299 180.152 157.512 181.99C155.726 183.827 155.804 186.251 155.41 188.567C154.818 191.888 153.438 195.014 151.39 197.675C150.141 198.969 149.155 200.498 148.486 202.175C148.302 202.742 148.302 203.353 148.486 203.92C148.828 204.493 149.325 204.955 149.918 205.251C151.271 206.249 152.801 206.972 154.425 207.382C154.959 207.533 155.522 207.551 156.065 207.432C156.607 207.314 157.113 207.064 157.539 206.703C157.83 206.351 158.205 206.082 158.629 205.921C159.052 205.761 159.509 205.713 159.956 205.784C160.879 206.065 161.832 206.235 162.794 206.29C163.536 206.173 164.229 205.844 164.792 205.341C165.355 204.839 165.765 204.184 165.974 203.454C166.396 201.999 166.63 200.495 166.67 198.98C167.117 194.985 168.628 191.151 168.865 187.129C168.961 186.199 168.82 185.259 168.457 184.399C168.094 183.539 167.519 182.788 166.789 182.216V182.216Z" fill="url(#paint19_linear)"/>
<path d="M144.124 203.667C143.963 203.89 143.853 204.147 143.8 204.418C143.748 204.69 143.755 204.97 143.821 205.238C143.951 205.472 144.143 205.665 144.375 205.794C144.607 205.924 144.871 205.985 145.135 205.97C148.972 206.138 152.739 207.066 156.225 208.7C156.987 209.059 157.972 209.445 158.498 208.7C158.646 208.424 158.724 208.115 158.724 207.801C158.724 207.487 158.646 207.178 158.498 206.902C158.221 206.398 157.829 205.969 157.355 205.651C155.847 204.521 154.267 203.493 152.625 202.575C149.59 200.764 146.462 199.805 144.124 203.667Z" fill="white"/>
<path d="M155.831 265.888C157.604 269.483 161.323 271.666 157.604 275.275C151.035 281.693 139.433 284.369 130.63 284.289C124.743 284.289 118.647 282.864 114.022 279.163C112.604 278.123 111.495 276.709 110.816 275.075C110.477 273.994 110.3 272.867 110.29 271.733C109.134 250.709 116.479 230.017 126.859 211.815C128.83 208.327 131.418 204.572 135.36 203.986C136.766 203.841 138.187 203.931 139.564 204.253C148.78 205.851 157.893 208.008 166.854 210.71C168.046 210.977 169.17 211.494 170.152 212.228C170.857 212.872 171.459 213.622 171.939 214.452L186.103 236.461C188.166 239.644 190.282 243.119 190.045 246.9C190.034 248.014 189.665 249.094 188.994 249.976C187.917 250.999 186.525 251.615 185.052 251.72C179.884 252.561 174.595 252.197 169.587 250.655C172.386 248.485 171.506 243.998 169.666 240.909C168.417 238.854 166.871 237.001 165.081 235.41C163.883 241.353 161.94 247.116 159.299 252.559C157.381 256.567 153.584 261.321 155.831 265.888Z" fill="white"/>
<path d="M169.403 182.869C169.834 181.534 169.88 180.102 169.535 178.741C168.955 176.744 167.945 174.903 166.578 173.348C163.951 170.14 160.521 167.33 156.461 166.691C145.477 164.867 132.706 176.225 128.527 185.612C125.9 191.51 125.111 198.048 123.64 204.359C122.168 210.67 119.79 217.102 114.889 221.242C112.892 222.933 110.461 224.265 109.265 226.568C107.807 229.405 108.661 233.026 110.579 235.556C112.353 237.86 114.613 238.778 116.899 240.283C118.948 241.788 120.581 243.8 121.643 246.128C124.165 251.068 125.151 256.78 128.212 261.387L132.706 258.871C136.568 256.967 140.115 254.465 143.217 251.454C146.173 248.299 148.171 243.891 147.435 239.604C147.001 237.007 145.622 234.664 144.807 232.161C142.284 224.265 147.803 221.109 152.598 216.422C154.232 214.789 155.458 212.785 156.175 210.576C156.893 208.367 157.081 206.017 156.724 203.72C156.272 202.477 156.246 201.116 156.648 199.856C157.051 198.595 157.86 197.508 158.945 196.77C160.994 194.253 159.378 191.004 161.796 188.674C163.675 186.876 166.539 186.663 168.3 184.68C168.789 184.161 169.165 183.544 169.403 182.869V182.869Z" fill="#2F3554"/>
<path d="M115.441 237.7C116.044 234.909 116.924 232.188 118.069 229.578C123.206 233.279 126.964 240.509 128.856 246.594C130.748 252.679 132.298 259.097 136.161 264.143L140.34 262.679L141.115 265.342C141.719 267.445 139.972 269.602 140.156 271.733C140.361 272.829 140.874 273.843 141.634 274.65C142.394 275.458 143.368 276.026 144.439 276.287C146.9 276.764 149.441 276.581 151.81 275.754C153.347 275.45 154.8 274.809 156.067 273.877C156.702 273.398 157.187 272.744 157.465 271.993C157.742 271.242 157.8 270.426 157.631 269.642C158.136 269.952 158.524 270.426 158.731 270.986C158.939 271.546 158.954 272.161 158.774 272.732C158.404 273.866 157.709 274.863 156.777 275.594C153.873 278.257 150.207 279.589 146.528 281.027C144.809 281.728 143.055 282.337 141.272 282.851C137.128 283.785 132.891 284.232 128.646 284.182C126.018 284.182 124.533 283.836 123.39 281.253C121.761 277.565 121.642 273.411 121.248 269.403C120.118 258.7 118.176 248.101 115.441 237.7Z" fill="url(#paint20_linear)"/>
<path d="M129.5 276.26C129.5 277.405 129.5 278.563 129.421 279.749C129.342 280.934 129.25 282.132 129.106 283.37C129.121 283.64 129.089 283.91 129.014 284.169C128.895 285.008 128.777 285.847 128.619 286.712V286.805C128.541 287.271 128.449 287.751 128.357 288.243C128.75 290.857 128.422 293.53 127.411 295.966V295.966C125.071 296.046 122.73 296.006 120.394 295.846C115.849 295.567 111.352 294.754 106.992 293.423V293.423C102.529 291.103 98.4073 288.163 94.7466 284.688C93.7314 283.811 92.9232 282.715 92.3815 281.479C91.988 280.151 91.8541 278.758 91.9874 277.378C92.1322 269.67 91.1447 261.983 89.0573 254.57C88.6106 252.959 88.0982 251.361 87.5332 249.776C86.9025 247.992 86.2193 246.221 85.4441 244.45C83.644 240.336 81.5023 236.342 80.6351 231.921C80.1739 229.51 80.1339 227.036 80.5169 224.611C80.5422 224.181 80.7034 223.77 80.9767 223.439C81.1873 223.274 81.428 223.153 81.6851 223.082C81.9421 223.011 82.2104 222.992 82.4746 223.027C87.9536 223.173 92.9859 226.369 98.3467 227.287C101.119 227.767 104.01 227.647 106.703 228.459C110.512 229.764 113.761 232.36 115.901 235.809C117.106 237.573 118.173 239.429 119.093 241.361C120.499 244.264 121.813 247.034 123.035 249.723C123.745 251.348 124.349 252.932 125.032 254.517C127.058 259.472 128.461 264.666 129.211 269.975V270.069C129.432 272.124 129.529 274.192 129.5 276.26V276.26Z" fill="#3E3E54"/>
<path d="M129.5 276.26C129.5 277.405 129.5 278.563 129.421 279.749C129.342 280.934 129.25 282.132 129.106 283.37C129.121 283.64 129.089 283.91 129.014 284.169C128.895 285.008 128.777 285.847 128.619 286.712V286.805C128.541 287.271 128.449 287.751 128.357 288.243C128.75 290.857 128.422 293.53 127.411 295.966V295.966C125.071 296.046 122.73 296.006 120.394 295.846C115.849 295.567 111.352 294.754 106.992 293.423V293.423C102.529 291.103 98.4073 288.163 94.7466 284.688C93.7314 283.811 92.9232 282.715 92.3815 281.479C91.988 280.151 91.8541 278.758 91.9874 277.378C92.1322 269.67 91.1447 261.983 89.0573 254.57C88.6106 252.959 88.0982 251.361 87.5332 249.776C86.9025 247.992 86.2193 246.221 85.4441 244.45C83.644 240.336 81.5023 236.342 80.6351 231.921C80.1739 229.51 80.1339 227.036 80.5169 224.611C80.5422 224.181 80.7034 223.77 80.9767 223.439C81.1873 223.274 81.428 223.153 81.6851 223.082C81.9421 223.011 82.2104 222.992 82.4746 223.027C87.9536 223.173 92.9859 226.369 98.3467 227.287C101.119 227.767 104.01 227.647 106.703 228.459C110.512 229.764 113.761 232.36 115.901 235.809C117.106 237.573 118.173 239.429 119.093 241.361C120.499 244.264 121.813 247.034 123.035 249.723C123.745 251.348 124.349 252.932 125.032 254.517C127.058 259.472 128.461 264.666 129.211 269.975V270.069C129.432 272.124 129.529 274.192 129.5 276.26V276.26Z" fill="url(#paint21_linear)"/>
<path d="M180.191 337.549C180.265 337.445 180.364 337.362 180.48 337.309C180.966 337.11 181.399 337.655 181.662 338.108C182.825 340.04 184.565 341.546 186.629 342.409C186.879 342.543 187.168 342.581 187.443 342.515C187.759 342.396 187.916 342.049 188.153 341.823C188.336 341.678 188.552 341.58 188.781 341.539C189.01 341.497 189.245 341.512 189.467 341.583C189.915 341.739 190.333 341.974 190.702 342.276C191.886 343.061 192.999 343.952 194.026 344.939C194.552 345.471 195.064 346.27 194.749 346.936C194.55 347.296 194.22 347.564 193.829 347.682C192.385 348.151 190.825 348.099 189.414 347.535C186.787 346.656 184.448 345.019 181.872 343.993C181.692 343.905 181.495 343.859 181.294 343.86C181.151 343.883 181.011 343.919 180.874 343.967C180.64 343.939 180.415 343.857 180.217 343.728C180.019 343.598 179.853 343.425 179.731 343.221C179.074 342.396 178.756 341.348 178.842 340.292C178.927 339.236 179.41 338.254 180.191 337.549V337.549Z" fill="#3E3E54"/>
<path d="M219.096 170.459L211.12 172.203V136.359L219.096 134.628V170.459Z" fill="#354F52"/>
<path d="M229.725 168.129L221.737 169.873V142.737L229.725 141.006V168.129Z" fill="#354F52"/>
<path d="M240.368 165.812L232.393 167.556V118.344L240.368 116.6V165.812Z" fill="#354F52"/>
<path d="M250.998 163.482L243.022 165.226V105.349L250.998 103.605V163.482Z" fill="#354F52"/>
<path d="M205.865 173.255L256.542 162.936V103.711" stroke="#2F3554" stroke-width="1.0501" stroke-miterlimit="10"/>
<path d="M131.655 125.601C132.007 125.72 132.35 125.867 132.679 126.04L135.859 127.811C136.009 127.905 136.173 127.972 136.345 128.011C136.527 128.051 136.715 128.051 136.897 128.011C141.391 127.066 141.43 121.1 137.777 119.037C137.083 118.717 136.426 118.32 135.82 117.852C135.348 117.325 134.909 116.769 134.506 116.187C134.28 115.908 133.983 115.697 133.647 115.577C133.311 115.458 132.949 115.434 132.601 115.508C132.308 115.652 132.053 115.864 131.859 116.129C131.665 116.393 131.536 116.701 131.484 117.026C131.393 117.676 131.234 118.314 131.011 118.93C130.805 119.307 130.558 119.66 130.275 119.982C129.864 120.508 129.487 121.059 129.145 121.633C128.752 122.169 128.565 122.832 128.619 123.497C128.722 123.868 128.913 124.206 129.177 124.483C129.441 124.76 129.769 124.965 130.13 125.082C130.59 125.281 131.103 125.415 131.655 125.601Z" fill="#FDB9A9"/>
<path d="M160.469 149.674C161.057 150.719 161.445 151.866 161.612 153.056C161.604 154.219 161.332 155.364 160.817 156.403C160.302 157.442 159.558 158.347 158.642 159.048C156.151 161.245 153.006 162.534 149.708 162.71C148.867 162.794 148.018 162.666 147.238 162.337C146.162 161.644 145.344 160.609 144.912 159.394C140.839 150.899 136.385 140.394 135.977 130.82C135.846 127.851 138.408 122.618 141.851 124.589C145.635 126.759 149.143 132.085 151.744 135.534C155.098 139.949 158.02 144.685 160.469 149.674V149.674Z" fill="white"/>
</g>
<defs>
<linearGradient id="paint0_linear" x1="134.23" y1="196.263" x2="152.281" y2="436.644" gradientUnits="userSpaceOnUse">
<stop offset="0.01"/>
<stop offset="0.08" stop-opacity="0.69"/>
<stop offset="0.21" stop-opacity="0.32"/>
<stop offset="1" stop-opacity="0"/>
</linearGradient>
<linearGradient id="paint1_linear" x1="247357" y1="-12535.6" x2="247210" y2="-176.117" gradientUnits="userSpaceOnUse">
<stop offset="0.01"/>
<stop offset="0.08" stop-opacity="0.69"/>
<stop offset="0.21" stop-opacity="0.32"/>
<stop offset="1" stop-opacity="0"/>
</linearGradient>
<linearGradient id="paint2_linear" x1="33724.9" y1="-1142.01" x2="33651.9" y2="-571.837" gradientUnits="userSpaceOnUse">
<stop offset="0.01"/>
<stop offset="0.08" stop-opacity="0.69"/>
<stop offset="0.21" stop-opacity="0.32"/>
<stop offset="1" stop-opacity="0"/>
</linearGradient>
<linearGradient id="paint3_linear" x1="3066.22" y1="-2444.59" x2="2603.36" y2="-2258.83" gradientUnits="userSpaceOnUse">
<stop offset="0.01"/>
<stop offset="0.08" stop-opacity="0.69"/>
<stop offset="0.21" stop-opacity="0.32"/>
<stop offset="1" stop-opacity="0"/>
</linearGradient>
<linearGradient id="paint4_linear" x1="21454.2" y1="-966.645" x2="20758.3" y2="-508.518" gradientUnits="userSpaceOnUse">
<stop offset="0.01"/>
<stop offset="0.08" stop-opacity="0.69"/>
<stop offset="0.21" stop-opacity="0.32"/>
<stop offset="1" stop-opacity="0"/>
</linearGradient>
<linearGradient id="paint5_linear" x1="186932" y1="-8852.13" x2="186897" y2="-1016.89" gradientUnits="userSpaceOnUse">
<stop offset="0.01"/>
<stop offset="0.08" stop-opacity="0.69"/>
<stop offset="0.21" stop-opacity="0.32"/>
<stop offset="1" stop-opacity="0"/>
</linearGradient>
<linearGradient id="paint6_linear" x1="21878.6" y1="-888.174" x2="21183.6" y2="-429.549" gradientUnits="userSpaceOnUse">
<stop offset="0.01"/>
<stop offset="0.08" stop-opacity="0.69"/>
<stop offset="0.21" stop-opacity="0.32"/>
<stop offset="1" stop-opacity="0"/>
</linearGradient>
<linearGradient id="paint7_linear" x1="350.961" y1="332.09" x2="347.925" y2="301.353" gradientUnits="userSpaceOnUse">
<stop stop-opacity="0"/>
<stop offset="0.99"/>
</linearGradient>
<linearGradient id="paint8_linear" x1="18387.6" y1="-10182.6" x2="20334.8" y2="-4084.59" gradientUnits="userSpaceOnUse">
<stop stop-opacity="0"/>
<stop offset="0.99"/>
</linearGradient>
<linearGradient id="paint9_linear" x1="155876" y1="-726.856" x2="155865" y2="-208.649" gradientUnits="userSpaceOnUse">
<stop offset="0.01"/>
<stop offset="0.08" stop-opacity="0.69"/>
<stop offset="0.21" stop-opacity="0.32"/>
<stop offset="1" stop-opacity="0"/>
</linearGradient>
<linearGradient id="paint10_linear" x1="318.835" y1="194.639" x2="341.146" y2="194.639" gradientUnits="userSpaceOnUse">
<stop stop-color="#E5C5D5"/>
<stop offset="0.42" stop-color="#EAD4D1"/>
<stop offset="1" stop-color="#F0E9CB"/>
</linearGradient>
<linearGradient id="paint11_linear" x1="36117.6" y1="-4464.97" x2="31535.1" y2="-8116.51" gradientUnits="userSpaceOnUse">
<stop offset="0.01"/>
<stop offset="0.08" stop-opacity="0.69"/>
<stop offset="0.21" stop-opacity="0.32"/>
<stop offset="1" stop-opacity="0"/>
</linearGradient>
<linearGradient id="paint12_linear" x1="40512.2" y1="-9395.62" x2="38665.3" y2="-9395.62" gradientUnits="userSpaceOnUse">
<stop stop-opacity="0"/>
<stop offset="0.99"/>
</linearGradient>
<linearGradient id="paint13_linear" x1="4351.18" y1="-3458.23" x2="4617.29" y2="-3458.23" gradientUnits="userSpaceOnUse">
<stop stop-color="#E5C5D5"/>
<stop offset="0.42" stop-color="#EAD4D1"/>
<stop offset="1" stop-color="#F0E9CB"/>
</linearGradient>
<linearGradient id="paint14_linear" x1="2883.87" y1="-3101.38" x2="3369.08" y2="-3633.42" gradientUnits="userSpaceOnUse">
<stop stop-opacity="0"/>
<stop offset="0.99"/>
</linearGradient>
<linearGradient id="paint15_linear" x1="62369.9" y1="-10752.3" x2="60115.7" y2="-4486.16" gradientUnits="userSpaceOnUse">
<stop stop-color="#E5C5D5"/>
<stop offset="0.42" stop-color="#EAD4D1"/>
<stop offset="1" stop-color="#F0E9CB"/>
</linearGradient>
<linearGradient id="paint16_linear" x1="9387.19" y1="-8239.09" x2="12569.7" y2="-4938.93" gradientUnits="userSpaceOnUse">
<stop stop-color="#E5C5D5"/>
<stop offset="0.42" stop-color="#EAD4D1"/>
<stop offset="1" stop-color="#F0E9CB"/>
</linearGradient>
<linearGradient id="paint17_linear" x1="6717.47" y1="-2687.54" x2="8549.66" y2="-5047.39" gradientUnits="userSpaceOnUse">
<stop offset="0.01"/>
<stop offset="0.08" stop-opacity="0.69"/>
<stop offset="0.21" stop-opacity="0.32"/>
<stop offset="1" stop-opacity="0"/>
</linearGradient>
<linearGradient id="paint18_linear" x1="6165.89" y1="-1667.96" x2="5940.17" y2="-1020.47" gradientUnits="userSpaceOnUse">
<stop stop-opacity="0"/>
<stop offset="0.99"/>
</linearGradient>
<linearGradient id="paint19_linear" x1="44827.7" y1="-4454.54" x2="44507" y2="-4454.54" gradientUnits="userSpaceOnUse">
<stop stop-color="#E5C5D5"/>
<stop offset="0.42" stop-color="#EAD4D1"/>
<stop offset="1" stop-color="#F0E9CB"/>
</linearGradient>
<linearGradient id="paint20_linear" x1="14509.6" y1="-4485.85" x2="19086.5" y2="-8127.7" gradientUnits="userSpaceOnUse">
<stop offset="0.01"/>
<stop offset="0.08" stop-opacity="0.69"/>
<stop offset="0.21" stop-opacity="0.32"/>
<stop offset="1" stop-opacity="0"/>
</linearGradient>
<linearGradient id="paint21_linear" x1="16840" y1="-9441.9" x2="18686.3" y2="-9441.9" gradientUnits="userSpaceOnUse">
<stop stop-opacity="0"/>
<stop offset="0.99"/>
</linearGradient>
<clipPath id="clip0">
<rect width="508" height="388" fill="white"/>
</clipPath>
</defs>
</svg>
